<?xml version="1.0" encoding="UTF-8" standalone="no"?>
<svg
   xmlns:dc="http://purl.org/dc/elements/1.1/"
   xmlns:cc="http://creativecommons.org/ns#"
   xmlns:rdf="http://www.w3.org/1999/02/22-rdf-syntax-ns#"
   xmlns:svg="http://www.w3.org/2000/svg"
   xmlns="http://www.w3.org/2000/svg"
   xmlns:xlink="http://www.w3.org/1999/xlink"
   xmlns:sodipodi="http://sodipodi.sourceforge.net/DTD/sodipodi-0.dtd"
   xmlns:inkscape="http://www.inkscape.org/namespaces/inkscape"
   id="svg0"
   height="620"
   width="620"
   version="1.0"
   viewBox="0 0 62 62"
   inkscape:version="0.48.2 r9819"
   sodipodi:docname="Ambox_outdated_serious.svg">
  <sodipodi:namedview
     pagecolor="#ffffff"
     bordercolor="#666666"
     borderopacity="1"
     objecttolerance="10"
     gridtolerance="10"
     guidetolerance="10"
     inkscape:pageopacity="0"
     inkscape:pageshadow="2"
     inkscape:window-width="1280"
     inkscape:window-height="778"
     id="namedview3696"
     showgrid="false"
     inkscape:zoom="0.38064516"
     inkscape:cx="503.01169"
     inkscape:cy="391.26964"
     inkscape:window-x="-8"
     inkscape:window-y="-8"
     inkscape:window-maximized="1"
     inkscape:current-layer="svg0" />
  <metadata
     id="metadata19">
    <rdf:RDF>
      <cc:Work
         rdf:about="">
        <dc:format>image/svg+xml</dc:format>
        <dc:type
           rdf:resource="http://purl.org/dc/dcmitype/StillImage" />
        <dc:title></dc:title>
      </cc:Work>
    </rdf:RDF>
  </metadata>
  <defs
     id="defs4">
    <radialGradient
       id="shadowGradient"
       gradientUnits="userSpaceOnUse"
       cy="29.5"
       cx="32.5"
       r="26.5">
      <stop
         id="stop17"
         stop-color="#c0c0c0"
         offset="0" />
      <stop
         id="stop19"
         stop-color="#c0c0c0"
         offset=".88" />
      <stop
         id="stop21"
         stop-color="#c0c0c0"
         stop-opacity="0"
         offset="1" />
    </radialGradient>
    <linearGradient
       id="linearGradient2184"
       y2="183.59"
       xlink:href="#linearGradient3134"
       gradientUnits="userSpaceOnUse"
       y1="-13.27"
       gradientTransform="matrix(1.2084 0 0 1.2084 89.67 106.94)"
       x2="202.58"
       x1="29.754" />
    <filter
       id="filter3172">
      <feGaussianBlur
         id="feGaussianBlur3174"
         stdDeviation="5.0924795" />
    </filter>
    <linearGradient
       id="linearGradient3148"
       y2="225.08"
       xlink:href="#linearGradient3134"
       gradientUnits="userSpaceOnUse"
       x2="122.31"
       y1="72.048"
       x1="29.518" />
    <linearGradient
       id="linearGradient3134">
      <stop
         id="stop3136"
         stop-color="#f54c4c"
         offset="0" />
      <stop
         id="stop3165"
         stop-color="#ba1313"
         offset=".5" />
      <stop
         id="stop3138"
         stop-color="#9a1919"
         offset="1" />
    </linearGradient>
    <linearGradient
       id="linearGradient2938"
       y2="51.987"
       gradientUnits="userSpaceOnUse"
       x2="22.014"
       y1="-13.239"
       x1="52.778">
      <stop
         id="stop7"
         stop-color="#ffe1b8"
         offset="0" />
      <stop
         id="stop9"
         stop-color="#ff8b00"
         offset="1" />
    </linearGradient>
    <linearGradient
       id="linearGradient2940"
       y2="16.249"
       gradientUnits="userSpaceOnUse"
       x2="9.5471"
       y1="41.179"
       x1="54.51">
      <stop
         id="stop12"
         stop-color="#f98433"
         offset="0" />
      <stop
         id="stop14"
         stop-color="#e37b00"
         offset="1" />
    </linearGradient>
    <radialGradient
       id="radialGradient2942"
       gradientUnits="userSpaceOnUse"
       cy="-600.17"
       cx="61.833"
       gradientTransform="matrix(1,0,0,-1,0,-538)"
       r="53.001">
      <stop
         id="stop3227"
         stop-color="#F3843C"
         offset=".9505" />
      <stop
         id="stop3229"
         stop-color="#F2673C"
         offset="1" />
    </radialGradient>
    <linearGradient
       id="linearGradient2944"
       y2="-652.25"
       gradientUnits="userSpaceOnUse"
       x2="61.626"
       gradientTransform="matrix(1,0,0,-1,0,-538)"
       y1="-551.25"
       x1="61.626">
      <stop
         id="stop3249"
         stop-color="#fff"
         offset="0" />
      <stop
         id="stop3251"
         stop-color="#E1F1FF"
         offset=".1478" />
      <stop
         id="stop3253"
         stop-color="#D4EBFF"
         offset=".2363" />
      <stop
         id="stop3255"
         stop-color="#E3F2FF"
         offset=".3505" />
      <stop
         id="stop3257"
         stop-color="#F3F9FF"
         offset=".5264" />
      <stop
         id="stop3259"
         stop-color="#FCFEFF"
         offset=".7262" />
      <stop
         id="stop3261"
         stop-color="#fff"
         offset="1" />
    </linearGradient>
    <linearGradient
       id="linearGradient2946"
       y2="728.88"
       gradientUnits="userSpaceOnUse"
       x2="107.83"
       gradientTransform="translate(0,-665)"
       y1="728.88"
       x1="10.25">
      <stop
         id="stop3278"
         stop-color="#fff"
         offset="0" />
      <stop
         id="stop3280"
         stop-color="#EDF7FF"
         offset=".1435" />
      <stop
         id="stop3282"
         stop-color="#E0F2FF"
         offset=".2802" />
      <stop
         id="stop3284"
         stop-color="#E3F3FF"
         offset=".3063" />
      <stop
         id="stop3286"
         stop-color="#F3FAFF"
         offset=".4942" />
      <stop
         id="stop3288"
         stop-color="#FCFEFF"
         offset=".7076" />
      <stop
         id="stop3290"
         stop-color="#fff"
         offset="1" />
    </linearGradient>
    <linearGradient
       id="linearGradient2948"
       y2="-729.13"
       gradientUnits="userSpaceOnUse"
       x2="-160.04"
       gradientTransform="matrix(.9796 -.2008 -.2008 -.9796 63.749 -682.03)"
       y1="-726.62"
       x1="-160.04">
      <stop
         id="stop3506"
         stop-color="#524AC9"
         offset="0" />
      <stop
         id="stop3508"
         stop-color="#5855BC"
         offset=".0957" />
      <stop
         id="stop3510"
         stop-color="#5D60AF"
         offset=".2352" />
      <stop
         id="stop3512"
         stop-color="#5F64AB"
         offset=".3681" />
      <stop
         id="stop3514"
         stop-color="#190C7F"
         offset=".7253" />
    </linearGradient>
    <linearGradient
       id="linearGradient2950"
       y2="-789.16"
       gradientUnits="userSpaceOnUse"
       x2="-915.77"
       gradientTransform="matrix(.6552 -.7555 -.7555 -.6552 80.69 -1161.2)"
       y1="-785.94"
       x1="-915.77">
      <stop
         id="stop3519"
         stop-color="#524AC9"
         offset="0" />
      <stop
         id="stop3521"
         stop-color="#5855BC"
         offset=".0957" />
      <stop
         id="stop3523"
         stop-color="#5D60AF"
         offset=".2352" />
      <stop
         id="stop3525"
         stop-color="#5F64AB"
         offset=".3681" />
      <stop
         id="stop3527"
         stop-color="#190C7F"
         offset=".7253" />
    </linearGradient>
    <linearGradient
       id="linearGradient2952"
       y2="-603.19"
       gradientUnits="userSpaceOnUse"
       x2="62.406"
       gradientTransform="matrix(1,0,0,-1,0,-538)"
       y1="-595"
       x1="62.406">
      <stop
         id="stop3535"
         stop-color="#8BA4D6"
         offset="0" />
      <stop
         id="stop3537"
         stop-color="#1B3EA6"
         offset="1" />
    </linearGradient>
    <radialGradient
       id="radialGradient2954"
       gradientUnits="userSpaceOnUse"
       cy="-595.29"
       cx="61.365"
       gradientTransform="matrix(1,0,0,-1,0,-538)"
       r="7.5656">
      <stop
         id="stop3545"
         stop-color="#fff"
         offset="0" />
      <stop
         id="stop3547"
         stop-color="#F6FAFF"
         offset=".0515" />
      <stop
         id="stop3549"
         stop-color="#def"
         offset=".1361" />
      <stop
         id="stop3551"
         stop-color="#B5D9FF"
         offset=".2432" />
      <stop
         id="stop3553"
         stop-color="#7DBDFF"
         offset=".3688" />
      <stop
         id="stop3555"
         stop-color="#3699FF"
         offset=".5081" />
      <stop
         id="stop3557"
         stop-color="#1487FF"
         offset=".5714" />
      <stop
         id="stop3559"
         stop-color="#0F85FF"
         offset=".8132" />
      <stop
         id="stop3561"
         stop-color="#3397FF"
         offset=".967" />
    </radialGradient>
  </defs>
  <circle
     id="shadow"
     transform="matrix(1.0648 0 0 1.0648 -6.3 1.2864)"
     cy="29.5"
     cx="32.5"
     r="26.5"
     fill="url(#shadowGradient)" />
  <g
     id="g3790">
    <g
       transform="translate(-3.8)"
       id="g2765">
      <circle
         fill="url(#linearGradient2938)"
         stroke="url(#linearGradient2940)"
         stroke-width="2"
         d="M 56.799999,31 C 56.799999,45.248946 45.248946,56.799999 31,56.799999 16.751054,56.799999 5.2000008,45.248946 5.2000008,31 5.2000008,16.751054 16.751054,5.2000008 31,5.2000008 45.248946,5.2000008 56.799999,16.751054 56.799999,31 z"
         r="25.8"
         cx="31"
         cy="31"
         id="field" />
      <g
         transform="matrix(.43933 0 0 .43933 3.8811 3.6632)"
         id="g3224">
        <circle
           fill="url(#radialGradient2942)"
           d="m 114.834,62.166 c 0,29.271644 -23.729356,53.001 -53.001,53.001 -29.271644,0 -53.0009993,-23.729356 -53.0009993,-53.001 0,-29.271643 23.7293553,-53.0009991 53.0009993,-53.0009991 29.271644,0 53.001,23.7293561 53.001,53.0009991 z"
           r="53.001"
           cy="62.166"
           cx="61.833"
           id="circle3231" />
      </g>
      <circle
         fill="#ffdb7f"
         d="M 113,61.875 C 113,90.248629 89.998629,113.25 61.625,113.25 33.251371,113.25 10.25,90.248629 10.25,61.875 10.25,33.501371 33.251371,10.5 61.625,10.5 89.998629,10.5 113,33.501371 113,61.875 z"
         r="51.375"
         transform="matrix(.43933 0 0 .43933 3.8811 3.6632)"
         cy="61.875"
         cx="61.625"
         id="SVGID_4_" />
      <g
         transform="matrix(.43933 0 0 .43933 3.8811 3.6632)"
         id="g3238">
        <g
           id="g3240">
          <defs
             id="defs3242">
            <circle
               r="51.375"
               cy="61.875"
               cx="61.625"
               id="SVGID_5_" />
          </defs>
          <clipPath
             id="SVGID_6_">
            <use
               overflow="visible"
               x="0"
               y="0"
               width="62"
               height="62"
               xlink:href="#SVGID_5_"
               id="use3246" />
          </clipPath>
          <circle
             fill="url(#linearGradient2944)"
             d="M 113,63.875 C 113,92.248629 89.998629,115.25 61.625,115.25 33.251371,115.25 10.25,92.248629 10.25,63.875 10.25,35.501371 33.251371,12.5 61.625,12.5 89.998629,12.5 113,35.501371 113,63.875 z"
             r="51.375"
             cy="63.875"
             cx="61.625"
             clip-path="url(#SVGID_6_)"
             id="circle3263" />
        </g>
      </g>
      <g
         transform="matrix(.43933 0 0 .43933 3.8811 3.6632)"
         id="g3267">
        <g
           id="g3269">
          <defs
             id="defs3271">
            <circle
               r="51.375"
               cy="61.875"
               cx="61.625"
               id="SVGID_8_" />
          </defs>
          <clipPath
             id="SVGID_9_">
            <use
               overflow="visible"
               x="0"
               y="0"
               width="62"
               height="62"
               xlink:href="#SVGID_8_"
               id="use3275" />
          </clipPath>
          <path
             opacity=".15"
             fill="url(#linearGradient2946)"
             enable-background="new    "
             clip-path="url(#SVGID_9_)"
             d="m107.83 41.917l-44.33 20.583-1.875 52.75c-28.373 0-51.375-23.001-51.375-51.375s23.002-51.375 51.375-51.375c20.927 0 38.198 11.465 46.205 29.417z"
             id="path3292" />
        </g>
      </g>
      <g
         transform="matrix(.43933 0 0 .43933 3.8811 3.6632)"
         id="g3295">
        <g
           id="g3297">
          <path
             fill="#d28f51"
             d="m70.877 19.168c-0.62 0-1.126-0.506-1.126-1.126s0.506-1.126 1.126-1.126c0.619 0 1.126 0.506 1.126 1.126s-0.507 1.126-1.126 1.126z"
             id="path3299" />
        </g>
        <g
           id="g3301">
          <path
             fill="#d28f51"
             d="m66.044 18.582c-0.621 0-1.125-0.504-1.125-1.123 0-0.621 0.504-1.125 1.125-1.125 0.619 0 1.123 0.504 1.123 1.125 0 0.619-0.504 1.123-1.123 1.123z"
             id="path3303" />
        </g>
        <g
           id="g3305">
          <path
             fill="#d28f51"
             d="m75.46 20.46c-0.62 0-1.127-0.506-1.127-1.126s0.507-1.126 1.127-1.126c0.619 0 1.126 0.507 1.126 1.126 0 0.62-0.507 1.126-1.126 1.126z"
             id="path3307" />
        </g>
        <g
           id="g3309">
          <path
             fill="#d28f51"
             d="m79.628 22.084c-0.62 0-1.127-0.505-1.127-1.125s0.507-1.127 1.127-1.127 1.125 0.507 1.125 1.127-0.505 1.125-1.125 1.125z"
             id="path3311" />
        </g>
        <g
           id="g3313">
          <path
             fill="#d28f51"
             d="m87.919 26.667c-0.62 0-1.126-0.505-1.126-1.126 0-0.619 0.506-1.124 1.126-1.124 0.621 0 1.126 0.505 1.126 1.124 0 0.621-0.505 1.126-1.126 1.126z"
             id="path3315" />
        </g>
        <g
           id="g3317">
          <path
             fill="#d28f51"
             d="m95.002 33.126c-0.619 0-1.125-0.506-1.125-1.125 0-0.62 0.506-1.125 1.125-1.125s1.125 0.505 1.125 1.125c0 0.619-0.506 1.125-1.125 1.125z"
             id="path3319" />
        </g>
        <g
           id="g3321">
          <path
             fill="#d28f51"
             d="m97.96 36.792c-0.619 0-1.125-0.506-1.125-1.125 0-0.62 0.506-1.125 1.125-1.125 0.62 0 1.126 0.506 1.126 1.125 0 0.62-0.506 1.125-1.126 1.125z"
             id="path3323" />
        </g>
        <g
           id="g3325">
          <path
             fill="#d28f51"
             d="m102.84 45.167c-0.62 0-1.13-0.504-1.13-1.124 0-0.622 0.51-1.126 1.13-1.126s1.12 0.504 1.12 1.126c0 0.62-0.5 1.124-1.12 1.124z"
             id="path3327" />
        </g>
        <g
           id="g3329">
          <path
             fill="#d28f51"
             d="m104.54 49.417c-0.62 0-1.12-0.504-1.12-1.125 0-0.62 0.5-1.124 1.12-1.124s1.13 0.504 1.13 1.124-0.51 1.125-1.13 1.125z"
             id="path3331" />
        </g>
        <g
           id="g3333">
          <path
             fill="#d28f51"
             d="m105.54 53.708c-0.62 0-1.12-0.504-1.12-1.125 0-0.622 0.5-1.126 1.12-1.126s1.13 0.504 1.13 1.126c0 0.621-0.51 1.125-1.13 1.125z"
             id="path3335" />
        </g>
        <g
           id="g3337">
          <path
             fill="#d28f51"
             d="m106.5 58.583c-0.62 0-1.12-0.504-1.12-1.125s0.5-1.125 1.12-1.125 1.13 0.504 1.13 1.125-0.51 1.125-1.13 1.125z"
             id="path3339" />
        </g>
        <g
           id="g3341">
          <path
             fill="#d28f51"
             d="m106.42 68.084c-0.62 0-1.12-0.505-1.12-1.125s0.5-1.124 1.12-1.124 1.12 0.504 1.12 1.124-0.5 1.125-1.12 1.125z"
             id="path3343" />
        </g>
        <g
           id="g3345">
          <path
             fill="#d28f51"
             d="m105.58 72.71c-0.62 0-1.12-0.505-1.12-1.127 0-0.62 0.5-1.124 1.12-1.124 0.63 0 1.13 0.504 1.13 1.124 0 0.622-0.5 1.127-1.13 1.127z"
             id="path3347" />
        </g>
        <g
           id="g3349">
          <path
             fill="#d28f51"
             d="m104.42 77.46c-0.62 0-1.13-0.504-1.13-1.126 0-0.62 0.51-1.125 1.13-1.125s1.12 0.505 1.12 1.125c0 0.622-0.5 1.126-1.12 1.126z"
             id="path3351" />
        </g>
        <g
           id="g3353">
          <path
             fill="#d28f51"
             d="m102.42 81.709c-0.62 0-1.12-0.504-1.12-1.124 0-0.622 0.5-1.126 1.12-1.126s1.12 0.504 1.12 1.126c0 0.62-0.5 1.124-1.12 1.124z"
             id="path3355" />
        </g>
        <g
           id="g3357">
          <path
             fill="#d28f51"
             d="m97.959 90.042c-0.619 0-1.125-0.506-1.125-1.125s0.506-1.126 1.125-1.126c0.62 0 1.126 0.507 1.126 1.126s-0.506 1.125-1.126 1.125z"
             id="path3359" />
        </g>
        <g
           id="g3361">
          <path
             fill="#d28f51"
             d="m94.919 93.708c-0.619 0-1.125-0.506-1.125-1.125 0-0.62 0.506-1.125 1.125-1.125s1.125 0.505 1.125 1.125c0 0.619-0.506 1.125-1.125 1.125z"
             id="path3363" />
        </g>
        <g
           id="g3365">
          <path
             fill="#d28f51"
             d="m91.629 97c-0.62 0-1.126-0.506-1.126-1.125s0.506-1.125 1.126-1.125c0.619 0 1.125 0.506 1.125 1.125s-0.506 1.125-1.125 1.125z"
             id="path3367" />
        </g>
        <g
           id="g3369">
          <path
             fill="#d28f51"
             d="m88.002 100.04c-0.619 0-1.123-0.504-1.123-1.123 0-0.62 0.504-1.126 1.123-1.126 0.62 0 1.126 0.506 1.126 1.126 0 0.619-0.506 1.123-1.126 1.123z"
             id="path3371" />
        </g>
        <g
           id="g3373">
          <path
             fill="#d28f51"
             d="m79.545 104.71c-0.622 0-1.127-0.51-1.127-1.13s0.505-1.12 1.127-1.12c0.619 0 1.124 0.5 1.124 1.12s-0.505 1.13-1.124 1.13z"
             id="path3375" />
        </g>
        <g
           id="g3377">
          <path
             fill="#d28f51"
             d="m75.377 106.58c-0.62 0-1.125-0.5-1.125-1.12s0.505-1.13 1.125-1.13 1.124 0.51 1.124 1.13-0.504 1.12-1.124 1.12z"
             id="path3379" />
        </g>
        <g
           id="g3381">
          <path
             fill="#d28f51"
             d="m70.585 107.62c-0.62 0-1.124-0.5-1.124-1.12s0.504-1.12 1.124-1.12 1.124 0.5 1.124 1.12-0.504 1.12-1.124 1.12z"
             id="path3383" />
        </g>
        <g
           id="g3385">
          <path
             fill="#d28f51"
             d="m66.086 108.54c-0.62 0-1.125-0.5-1.125-1.12s0.505-1.13 1.125-1.13 1.124 0.51 1.124 1.13-0.504 1.12-1.124 1.12z"
             id="path3387" />
        </g>
        <g
           id="g3389">
          <path
             fill="#d28f51"
             d="m51.542 19.167c-0.62 0-1.125-0.505-1.125-1.125s0.505-1.125 1.125-1.125 1.125 0.505 1.125 1.125-0.504 1.125-1.125 1.125z"
             id="path3391" />
        </g>
        <g
           id="g3393">
          <path
             fill="#d28f51"
             d="m56.376 18.582c-0.621 0-1.126-0.503-1.126-1.124s0.505-1.124 1.126-1.124 1.124 0.503 1.124 1.124-0.503 1.124-1.124 1.124z"
             id="path3395" />
        </g>
        <g
           id="g3397">
          <path
             fill="#d28f51"
             d="m46.959 20.458c-0.62 0-1.125-0.505-1.125-1.125s0.504-1.125 1.125-1.125c0.62 0 1.125 0.505 1.125 1.125s-0.505 1.125-1.125 1.125z"
             id="path3399" />
        </g>
        <g
           id="g3401">
          <path
             fill="#d28f51"
             d="m42.792 22.084c-0.619 0-1.124-0.505-1.124-1.126 0-0.62 0.504-1.124 1.124-1.124 0.622 0 1.126 0.504 1.126 1.124 0 0.621-0.505 1.126-1.126 1.126z"
             id="path3403" />
        </g>
        <g
           id="g3405">
          <path
             fill="#d28f51"
             d="m34.5 26.667c-0.621 0-1.125-0.504-1.125-1.125s0.504-1.125 1.125-1.125 1.125 0.504 1.125 1.125-0.504 1.125-1.125 1.125z"
             id="path3407" />
        </g>
        <g
           id="g3409">
          <path
             fill="#d28f51"
             d="m27.417 33.126c-0.621 0-1.126-0.506-1.126-1.126 0-0.621 0.506-1.125 1.126-1.125s1.125 0.504 1.125 1.125-0.504 1.126-1.125 1.126z"
             id="path3411" />
        </g>
        <g
           id="g3413">
          <path
             fill="#d28f51"
             d="m30.979 29.689c-0.621 0-1.125-0.506-1.125-1.126s0.504-1.125 1.125-1.125 1.124 0.504 1.124 1.125-0.503 1.126-1.124 1.126z"
             id="path3415" />
        </g>
        <g
           id="g3417">
          <path
             fill="#d28f51"
             d="m24.457 36.792c-0.619 0-1.123-0.504-1.123-1.125s0.504-1.125 1.123-1.125c0.621 0 1.125 0.504 1.125 1.125s-0.504 1.125-1.125 1.125z"
             id="path3419" />
        </g>
        <g
           id="g3421">
          <path
             fill="#d28f51"
             d="m19.583 45.167c-0.62 0-1.125-0.504-1.125-1.126 0-0.62 0.505-1.125 1.125-1.125 0.622 0 1.126 0.505 1.126 1.125-0.001 0.622-0.505 1.126-1.126 1.126z"
             id="path3423" />
        </g>
        <g
           id="g3425">
          <path
             fill="#d28f51"
             d="m17.875 49.417c-0.62 0-1.125-0.505-1.125-1.125s0.505-1.125 1.125-1.125 1.125 0.505 1.125 1.125c-0.001 0.62-0.506 1.125-1.125 1.125z"
             id="path3427" />
        </g>
        <g
           id="g3429">
          <path
             fill="#d28f51"
             d="m16.875 53.708c-0.62 0-1.125-0.505-1.125-1.125s0.505-1.123 1.125-1.123 1.124 0.503 1.124 1.123-0.503 1.125-1.124 1.125z"
             id="path3431" />
        </g>
        <g
           id="g3433">
          <path
             fill="#d28f51"
             d="m15.917 58.584c-0.621 0-1.124-0.506-1.124-1.126 0-0.621 0.503-1.124 1.124-1.124s1.124 0.503 1.124 1.124c0 0.62-0.504 1.126-1.124 1.126z"
             id="path3435" />
        </g>
        <g
           id="g3437">
          <path
             fill="#d28f51"
             d="m16 68.083c-0.619 0-1.124-0.505-1.124-1.124 0-0.621 0.504-1.125 1.124-1.125 0.621 0 1.125 0.504 1.125 1.125 0 0.619-0.504 1.124-1.125 1.124z"
             id="path3439" />
        </g>
        <g
           id="g3441">
          <path
             fill="#d28f51"
             d="m16.833 72.711c-0.62 0-1.126-0.507-1.126-1.126 0-0.62 0.506-1.126 1.126-1.126s1.126 0.506 1.126 1.126c0 0.619-0.506 1.126-1.126 1.126z"
             id="path3443" />
        </g>
        <g
           id="g3445">
          <path
             fill="#d28f51"
             d="m18 77.46c-0.62 0-1.127-0.507-1.127-1.127 0-0.619 0.507-1.124 1.127-1.124s1.126 0.505 1.126 1.124c0 0.62-0.506 1.127-1.126 1.127z"
             id="path3447" />
        </g>
        <g
           id="g3449">
          <path
             fill="#d28f51"
             d="m19.999 81.709c-0.62 0-1.125-0.504-1.125-1.125 0-0.62 0.505-1.125 1.125-1.125 0.621 0 1.127 0.505 1.127 1.125 0 0.621-0.506 1.125-1.127 1.125z"
             id="path3451" />
        </g>
        <g
           id="g3453">
          <path
             fill="#d28f51"
             d="m24.458 90.043c-0.619 0-1.124-0.505-1.124-1.126s0.505-1.126 1.124-1.126c0.621 0 1.126 0.505 1.126 1.126s-0.505 1.126-1.126 1.126z"
             id="path3455" />
        </g>
        <g
           id="g3457">
          <path
             fill="#d28f51"
             d="m27.5 93.708c-0.619 0-1.125-0.506-1.125-1.125 0-0.621 0.506-1.126 1.125-1.126s1.125 0.505 1.125 1.126c0 0.619-0.506 1.125-1.125 1.125z"
             id="path3459" />
        </g>
        <g
           id="g3461">
          <path
             fill="#d28f51"
             d="m30.79 97c-0.619 0-1.125-0.506-1.125-1.125s0.506-1.125 1.125-1.125c0.62 0 1.125 0.506 1.125 1.125s-0.505 1.125-1.125 1.125z"
             id="path3463" />
        </g>
        <g
           id="g3465">
          <path
             fill="#d28f51"
             d="m34.417 100.04c-0.62 0-1.125-0.504-1.125-1.123 0-0.62 0.506-1.126 1.125-1.126s1.124 0.506 1.124 1.126c0 0.619-0.504 1.123-1.124 1.123z"
             id="path3467" />
        </g>
        <g
           id="g3469">
          <path
             fill="#d28f51"
             d="m42.875 104.71c-0.62 0-1.124-0.51-1.124-1.13s0.504-1.12 1.124-1.12 1.124 0.5 1.124 1.12-0.504 1.13-1.124 1.13z"
             id="path3471" />
        </g>
        <g
           id="g3473">
          <path
             fill="#d28f51"
             d="m47.042 106.58c-0.622 0-1.126-0.5-1.126-1.12s0.504-1.13 1.126-1.13c0.62 0 1.125 0.51 1.125 1.13s-0.504 1.12-1.125 1.12z"
             id="path3475" />
        </g>
        <g
           id="g3477">
          <path
             fill="#d28f51"
             d="m51.834 107.62c-0.62 0-1.125-0.5-1.125-1.12s0.504-1.12 1.125-1.12 1.125 0.5 1.125 1.12-0.504 1.12-1.125 1.12z"
             id="path3479" />
        </g>
        <g
           id="g3481">
          <path
             fill="#d28f51"
             d="m56.334 108.54c-0.62 0-1.125-0.5-1.125-1.12s0.504-1.13 1.125-1.13 1.125 0.51 1.125 1.13c-0.001 0.62-0.505 1.12-1.125 1.12z"
             id="path3483" />
        </g>
      </g>
      <polygon
         fill="#d28f51"
         transform="matrix(.43933 0 0 .43933 3.8811 3.6632)"
         points="60.874 111.25 60.874 102.62 62.875 102.62 62.875 111.25"
         id="polygon3486" />
      <polygon
         fill="#d28f51"
         transform="matrix(.43933 0 0 .43933 3.8811 3.6632)"
         points="60.874 21.458 60.874 12.5 62.874 12.5 62.874 21.458"
         id="polygon3488" />
      <polygon
         fill="#d28f51"
         transform="matrix(.43933 0 0 .43933 3.8811 3.6632)"
         points="102.4 63.104 102.4 61.103 111.02 61.103 111.02 63.104"
         id="polygon3490" />
      <polygon
         fill="#d28f51"
         transform="matrix(.43933 0 0 .43933 3.8811 3.6632)"
         points="12.728 63.104 12.728 61.104 21.354 61.104 21.354 63.104"
         id="polygon3492" />
      <path
         fill="#d28f51"
         d="m15.461 22.288l0.381-0.668-3.406-1.948-0.382 0.666 0.144 0.083 3.263 1.867zm4.422-10.045l0.083 0.143 1.881 3.254 0.666-0.384-1.965-3.397-0.665 0.384zm0 37.274l0.142 0.082 0.525 0.301 1.948-3.409-0.668-0.38-1.947 3.406zm-7.815-8.113l0.083 0.144 0.302 0.522 3.398-1.966-0.386-0.666-3.397 1.966zm34.524-19.117l3.408-1.948-0.383-0.667-3.406 1.949 0.082 0.143 0.299 0.523zm-6.384-6.645l1.963-3.4-0.667-0.384-1.963 3.398 0.143 0.083 0.524 0.303zm-0.652 30.849l0.082 0.143 1.865 3.264 0.668-0.381-1.948-3.408-0.667 0.382zm6.647-6.385l0.141 0.082 3.255 1.882 0.387-0.667-3.399-1.965-0.384 0.668z"
         id="path3495" />
      <path
         fill="#5ff6ff"
         stroke="#5ff6ff"
         stroke-width=".43933"
         d="m37.787 32.451c-0.434-0.216-0.962-0.04-1.179 0.394l-0.458 0.917c-0.216 0.434-0.04 0.962 0.394 1.179l4.717 2.355c0.434 0.216 0.962 0.04 1.179-0.394l0.457-0.917c0.217-0.435 0.041-0.962-0.393-1.179l-4.717-2.355z"
         id="path3498" />
      <line
         fill="none"
         stroke="#5ff6ff"
         stroke-width=".87866"
         stroke-linecap="round"
         stroke-linejoin="round"
         x1="37.007"
         y1="33.574"
         x2="15.764"
         y2="23.085"
         id="line3500" />
      <g
         transform="matrix(.43933 0 0 .43933 3.8811 3.6632)"
         id="g3503">
        <path
           fill="url(#linearGradient2948)"
           d="m69.033 59.994c0.18 0.879-0.387 1.737-1.266 1.918l-28.562 5.88c-0.879 0.181-1.738-0.387-1.918-1.267-0.18-0.879 0.386-1.738 1.265-1.918l28.558-5.879c0.884-0.18 1.744 0.386 1.923 1.266z"
           id="path3516" />
        <path
           fill="url(#linearGradient2950)"
           d="m93.373 26.619c0.417 0.362 0.463 0.993 0.102 1.41l-33.458 39.123c-0.362 0.418-0.994 0.463-1.411 0.102l-0.755-0.656c-0.417-0.361-0.463-0.992-0.101-1.41l33.458-39.124c0.36-0.418 0.993-0.462 1.409-0.101l0.756 0.656z"
           id="path3529" />
      </g>
      <g
         transform="matrix(.43933 0 0 .43933 3.8811 3.6632)"
         id="g3532">
        <circle
           fill="url(#linearGradient2952)"
           d="m 66.874998,61.280998 c 0,2.468161 -2.000839,4.469 -4.469,4.469 -2.46816,0 -4.469,-2.000839 -4.469,-4.469 0,-2.46816 2.00084,-4.469 4.469,-4.469 2.468161,0 4.469,2.00084 4.469,4.469 z"
           r="4.469"
           cy="61.281"
           cx="62.406"
           id="circle3539" />
      </g>
      <g
         transform="matrix(.43933 0 0 .43933 3.8811 3.6632)"
         id="g3542">
        <circle
           fill="url(#radialGradient2954)"
           d="m 66.115002,61.292 c 0,2.071068 -1.678933,3.75 -3.75,3.75 -2.071068,0 -3.75,-1.678932 -3.75,-3.75 0,-2.071068 1.678932,-3.75 3.75,-3.75 2.071067,0 3.75,1.678932 3.75,3.75 z"
           r="3.75"
           cy="61.292"
           cx="62.365"
           id="circle3563" />
      </g>
    </g>
    <g
       id="g3762"
       transform="matrix(0.49468321,0,0,0.49468321,10.626632,13.967152)">
      <path
         id="path3248"
         d="m 34.02,56.7 c -12.53,0 -22.68,-10.15 -22.68,-22.68 0,-12.53 10.15,-22.68 22.68,-22.68 12.53,0 22.68,10.15 22.68,22.68 0,0.05 0,0.09 0,0.14"
         inkscape:connector-curvature="0"
         style="fill:none;stroke:#ff0000;stroke-width:11" />
      <path
         id="path3250"
         d="M 28.35,39.69 51.03,53.86 28.35,68.04 z m 0,0"
         inkscape:connector-curvature="0"
         style="fill:#ff0000" />
    </g>
  </g>
  <g
     id="layer1"
     transform="matrix(.091070 0 0 .091070 26.651 25.302)">
    <path
       id="path3152"
       d="m213.05 47.378c-4.21 0.218-8.03 2.547-10.15 6.193l-168.96 291.54c-2.239 3.86-2.246 8.63-0.018 12.5 2.227 3.87 6.352 6.26 10.819 6.27l336.93 0.53c4.47 0.01 8.6-2.36 10.85-6.23 2.24-3.86 2.25-8.63 0.03-12.51l-168.02-292.06c-2.35-4.071-6.78-6.478-11.48-6.232zm0.61 37.462l146.41 254.53-293.65-0.46 147.24-254.07z"
       fill-opacity=".79730"
       filter="url(#filter3172)"
       fill="#777" />
    <path
       id="path2178"
       stroke-linejoin="round"
       d="m199.83 41.494c-4.22 0.218-8.04 2.547-10.16 6.194l-168.96 291.53c-2.237 3.87-2.244 8.64-0.016 12.51s6.352 6.26 10.819 6.26l336.93 0.53c4.47 0.02 8.61-2.36 10.85-6.22 2.24-3.87 2.25-8.63 0.03-12.51l-168.01-292.06c-2.35-4.075-6.79-6.482-11.48-6.236v0zm0.6 37.462l146.41 254.52-293.65-0.45 147.24-254.07z"
       stroke="#870000"
       stroke-linecap="round"
       stroke-width="5.0917"
       fill="url(#linearGradient2184)" />
    <path
       id="path2160"
       stroke-linejoin="round"
       stroke="url(#linearGradient3148)"
       stroke-linecap="round"
       stroke-width="16.854"
       fill="url(#linearGradient3148)"
       d="m230.71 197.86l-278.82-0.45 139.8-241.25 139.02 241.7z"
       transform="matrix(1.2084 0 0 1.2084 89.67 106.94)" />
    <path
       id="path19491"
       d="m199.89 117.76c-2.6 0.14-4.96 1.6-6.27 3.89l-104.42 183.11c-1.379 2.42-1.383 5.42-0.007 7.85 1.377 2.43 3.926 3.93 6.687 3.93l208.22 0.34c2.76 0 5.31-1.49 6.7-3.91 1.39-2.43 1.39-5.42 0.02-7.86l-103.83-183.43c-1.45-2.56-4.19-4.07-7.1-3.92z"
       fill="#fff" />
    <path
       id="text2171"
       d="m203.69 256.44h-5.34c-0.55-9.45-2.39-20.78-5.51-33.96l-6.35-26.88c-3.8-16.11-5.7-27.65-5.7-34.61 0-14.06 6.71-21.09 20.14-21.09 5.88 0 10.74 1.94 14.57 5.83s5.75 8.85 5.75 14.88c0 6.41-2.02 18.07-6.07 34.99l-6.44 26.88c-2.26 9.45-3.95 20.77-5.05 33.96zm-2.49 17.64c6.26 0 11.1 2.13 14.53 6.39 3.44 4.26 5.15 8.81 5.15 13.67 0 6.4-2.08 11.33-6.25 14.79-4.17 3.45-8.64 5.17-13.43 5.17-6.31 0-11.17-2.11-14.57-6.34s-5.1-8.77-5.1-13.62c0-5.66 1.88-10.42 5.65-14.28s8.45-5.78 14.02-5.78z" />
  </g>
</svg>
